# xmcd
#
# Track frame offsets: 
#        150
#        18588
#        36164
#        52967
#        67824
#        83216
#        100872
#        119431
#        139809
#        156964
#        175154
#        195601
#        213951
#        230772
#        247879
#        264903
#        282738
#        301034
#        317249
#
# Disc length: 4431 seconds
#
# Revision: 0
# Processed by: cddbd v1.5.2PL0 Copyright (c) Steve Scherf et al.
# Submitted via: ExactAudioCopy v0.95b4
#
DISCID=08114d13
DTITLE=Маликов Дмитрий - Если...
DYEAR=2006
DGENRE=Pop
TTITLE0=Если...
TTITLE1=Ты И Я
TTITLE2=Вишневая Смола
TTITLE3=С Чистого Листа
TTITLE4=Не Скучай
TTITLE5=Всё Как Ты Хотела
TTITLE6=Love Story
TTITLE7=Чёрный Дрозд И Белый Аист
TTITLE8=До Завтра
TTITLE9=Мама Лето
TTITLE10=Ты Одна, Ты Такая
TTITLE11=Птицелов
TTITLE12=С Днём Рождения Мама
TTITLE13=Нет, Ты Не Для Меня
TTITLE14=Шопотом
TTITLE15=Бисер
TTITLE16=100 Поцелуев
TTITLE17=Снежинка
TTITLE18=Ты Меня Никогда Не Забудешь
EXTD=
EXTT0=
EXTT1=
EXTT2=
EXTT3=
EXTT4=
EXTT5=
EXTT6=
EXTT7=
EXTT8=
EXTT9=
EXTT10=
EXTT11=
EXTT12=
EXTT13=
EXTT14=
EXTT15=
EXTT16=
EXTT17=
EXTT18=
PLAYORDER=
